# xmcd
#
# Track frame offsets:
#	150
#	17053
#	34015
#	52409
#	66199
#
# Disc length: 1119 seconds
# Revision: 0
# Processed by: cddbd v1.5.2PL0 Copyright (c) Steve Scherf et al.
# Submitted via: dBpowerAMP V12.0
#
DISCID=42045d05
DTITLE=Ashley Ray - Ashley Ray
DYEAR=2010
DGENRE=Country
TTITLE0=My Kind of Mistake
TTITLE1=This Time Around
TTITLE2=Dirt Cheap (feat. Mike Eli)
TTITLE3=Figured it Out
TTITLE4=Loved by You
EXTD=
EXTT0=
EXTT1=
EXTT2=
EXTT3=
EXTT4=
PLAYORDER=
